<svg xmlns="http://www.w3.org/2000/svg" xmlns:xlink="http://www.w3.org/1999/xlink" width="428" height="926" viewBox="0 0 428 926">
  <defs>
    <clipPath id="clip-iPhone_13_12_Pro_Max_2">
      <rect width="428" height="926"/>
    </clipPath>
  </defs>
  <g id="iPhone_13_12_Pro_Max_2" data-name="iPhone 13, 12 Pro Max – 2" clip-path="url(#clip-iPhone_13_12_Pro_Max_2)">
    <rect width="428" height="926" fill="#fff"/>
    <g id="Rechteck_14" data-name="Rechteck 14" fill="#ee964b" stroke="#707070" stroke-width="1">
      <rect width="428" height="85" stroke="none"/>
      <rect x="0.5" y="0.5" width="427" height="84" fill="none"/>
    </g>
    <rect id="Rechteck_16" data-name="Rechteck 16" width="75" height="15" rx="5" transform="translate(364.287 10.68) rotate(45)" fill="#0c0a3e"/>
    <rect id="Rechteck_17" data-name="Rechteck 17" width="75" height="15" rx="5" transform="translate(353.68 63.713) rotate(-45)" fill="#0c0a3e"/>
    <text id="OpenSauce" transform="translate(124.896 56.409)" fill="#12152c" font-size="35" font-family="OpenSauceOne-Regular, Open Sauce One"><tspan x="0" y="0">OpenSauce</tspan></text>
    <g id="Pfad_2" data-name="Pfad 2" transform="translate(0 85)" fill="#bebebe">
      <path d="M428,701h0Z" stroke="none"/>
      <path d="M 0 701 L 428 701 L 0 701 Z" stroke="none" fill="#707070"/>
    </g>
    <g id="Gruppe_3" data-name="Gruppe 3" transform="translate(-37.125 -119.221)">
      <path id="Pfad_1" data-name="Pfad 1" d="M39.018,160.822c-1.942,1.374-2.254,1.956-1.547,3.1l.547.89,2.853.053a38.33,38.33,0,0,1,8.09.767c4.531.914,6.682,2.2,15.091,8.9,7.217,5.752,9.216,7.229,12.645,9.3a55.43,55.43,0,0,0,12.273,5.526,23.1,23.1,0,0,0,7.058,1.472l2.843.142-.5,1.129c-1.746,3.845-2,6.1-1.041,9.015.771,2.34,2.006,3.263,4.178,3.083.875-.092,3.143-1.216,18.018-8.959l17.01-8.854.716-.988c1.128-1.594,1.126-2.4,0-4.5-1.306-2.509-2.9-3.692-6.335-4.7l-2.52-.758.353-.827c.215-.447.869-1.823,1.459-3.053,1.085-2.215,1.292-2.407,2.492-2.3a2.9,2.9,0,0,1,.172,1.029c.172,2.372,2.614,6.526,4.257,7.265a1.511,1.511,0,0,0,2.143-1.255c.11-.756.064-.844-1.044-2.114-2.647-3.1-2.656-6.392-.026-9.775,1.674-2.157,3.492-3.607,8.226-6.547,5.7-3.5,8.61-6.132,11.284-10.236,3.258-5.024,4.872-10.143,4.714-15.122a12.593,12.593,0,0,0-1.639-6.642,11.747,11.747,0,0,0-10.36-6.633,12.112,12.112,0,0,0-8.5,3.389,16.884,16.884,0,0,0-5.05,8.082,16.338,16.338,0,0,0-.806,8.446c.336,2.258.357,2.191-1.09,2.581-.43.14-.587.054-.626-.289-.117-1.03-1.445-6.268-2.028-8.034l-.652-1.9-.858-.2c-.98-.217-.86-.308-4.255,3.109-5.753,5.819-8.3,7.647-16.945,12.148-6.954,3.619-8.684,4.324-14.239,5.957-6.007,1.784-10.406,2.144-25.8,2.184-13.348.039-15.5.152-19.124.977A36.764,36.764,0,0,0,39.018,160.822Zm7.936-.5c5.248-2.06,7.242-2.259,22.377-2.25,18.63.008,23.114-.564,32.763-4.216a114.234,114.234,0,0,0,17.714-9.22,64.664,64.664,0,0,0,8.854-7.545c.677-.688,1.038-.96,1.075-.783s.287,1.249.561,2.421a46.754,46.754,0,0,1,.969,18.68,62.219,62.219,0,0,1-4.228,12.94c-3.223,6.488-2.976,7.394,2.376,8.971,2.709.8,3.223,1.035,4.138,1.986,1.218,1.212,1.325,1.632.693,2.352-.512.574-31.835,16.961-32.841,17.177-.519.13-.621.043-.958-.928a6.407,6.407,0,0,1,.225-4.564c1.63-3.477,1.825-5.145.782-6.5-.646-.811-2.786-1.43-4.872-1.408-2.052.033-3.856-.37-7.538-1.642-7.9-2.768-12.618-5.6-22.164-13.354-9.94-8.083-13.241-9.8-20.268-10.677a6.527,6.527,0,0,1-2.2-.419C44.562,161.264,45.7,160.813,46.954,160.326Zm100.895-37.413a7.888,7.888,0,0,1,4.884.087,8.835,8.835,0,0,1,6.046,6.781c1.064,4.732-.551,11.138-4.074,16.244-2.72,3.961-5.028,6.029-9.984,8.972-5.78,3.456-8.843,6.169-10.544,9.347-1.249,2.328-1.544,1.923-.728-1.075a52.9,52.9,0,0,0,1.7-15.65c-.087-1.241-.148-2.272-.149-2.328a9.681,9.681,0,0,1,1.269-.409l1.248-.342,1.249,2.4c1.18,2.266,1.293,2.431,2.085,2.662a1.365,1.365,0,0,0,1.93-.753c.28-.537.221-.758-.913-2.936-2.405-4.621-3.148-9.325-2.146-13.258a16.579,16.579,0,0,1,5.51-8.489A6.362,6.362,0,0,1,147.849,122.913Z" fill="#65211f"/>
    </g>
    <rect id="Rechteck_18" data-name="Rechteck 18" width="428" height="840" transform="translate(0 85)" fill="#d4f4dd"/>
    <g id="Gruppe_4" data-name="Gruppe 4" transform="translate(-27.125 -19.221)">
      <path id="Pfad_1-2" data-name="Pfad 1" d="M38.016,138.8c-.914.647-1.061.92-.728,1.458l.257.419,1.342.025a18.037,18.037,0,0,1,3.807.361c2.132.43,3.145,1.035,7.1,4.187a50.588,50.588,0,0,0,5.951,4.378,26.085,26.085,0,0,0,5.776,2.6,10.872,10.872,0,0,0,3.322.693l1.338.067-.237.531c-.822,1.809-.94,2.871-.49,4.243.363,1.1.944,1.535,1.966,1.451.412-.043,1.479-.572,8.479-4.216l8-4.166.337-.465c.531-.75.53-1.131,0-2.12a4.146,4.146,0,0,0-2.981-2.212l-1.186-.357.166-.389c.1-.21.409-.858.687-1.437.51-1.042.608-1.133,1.173-1.084a1.366,1.366,0,0,1,.081.484,5.476,5.476,0,0,0,2,3.419.711.711,0,0,0,1.009-.591c.052-.356.03-.4-.491-.995a3.3,3.3,0,0,1-.012-4.6,12.956,12.956,0,0,1,3.871-3.081,14.768,14.768,0,0,0,5.31-4.817,12.372,12.372,0,0,0,2.218-7.116,5.926,5.926,0,0,0-.771-3.125,5.528,5.528,0,0,0-4.875-3.122,5.7,5.7,0,0,0-4,1.595,7.945,7.945,0,0,0-2.376,3.8,7.688,7.688,0,0,0-.379,3.975c.158,1.063.168,1.031-.513,1.214-.2.066-.276.025-.295-.136-.055-.485-.68-2.95-.954-3.781L81.621,125l-.4-.093c-.461-.1-.4-.145-2,1.463a24.893,24.893,0,0,1-7.974,5.717,28.736,28.736,0,0,1-6.7,2.8c-2.827.84-4.9,1.009-12.139,1.028-6.281.019-7.293.072-9,.46A17.3,17.3,0,0,0,38.016,138.8Zm3.735-.233c2.47-.97,3.408-1.063,10.53-1.059,8.767,0,10.877-.266,15.418-1.984a53.757,53.757,0,0,0,8.336-4.339,30.43,30.43,0,0,0,4.166-3.55c.318-.324.489-.452.506-.369s.135.588.264,1.139a22,22,0,0,1,.456,8.791,29.28,29.28,0,0,1-1.99,6.089c-1.517,3.053-1.4,3.479,1.118,4.222,1.275.376,1.517.487,1.947.934.573.57.623.768.326,1.107-.241.27-14.981,7.982-15.455,8.083-.244.061-.292.02-.451-.436a3.015,3.015,0,0,1,.106-2.148c.767-1.636.859-2.421.368-3.061a3.375,3.375,0,0,0-2.293-.662,9.815,9.815,0,0,1-3.548-.773c-3.718-1.3-5.938-2.634-10.43-6.284-4.678-3.8-6.231-4.614-9.538-5.025a3.071,3.071,0,0,1-1.037-.2C40.625,139.006,41.159,138.794,41.751,138.565Zm47.48-17.606a3.712,3.712,0,0,1,2.3.041,4.157,4.157,0,0,1,2.845,3.191,10.437,10.437,0,0,1-1.917,7.644,12.715,12.715,0,0,1-4.7,4.222c-2.72,1.626-4.161,2.9-4.962,4.4-.588,1.1-.727.9-.342-.506a24.9,24.9,0,0,0,.8-7.365c-.041-.584-.07-1.069-.07-1.1a4.557,4.557,0,0,1,.6-.192l.587-.161.588,1.129c.555,1.067.609,1.144.981,1.253a.642.642,0,0,0,.908-.354c.132-.253.1-.357-.43-1.382a8.947,8.947,0,0,1-1.01-6.239A7.8,7.8,0,0,1,88,121.548,2.994,2.994,0,0,1,89.23,120.959Z" fill="#65211f"/>
    </g>
    <text id="Hauptseite" transform="translate(79 132)" fill="#12152c" font-size="30" font-family="OpenSauceOne-Regular, Open Sauce One"><tspan x="0" y="0">Hauptseite</tspan></text>
    <line id="Linie_2" data-name="Linie 2" x2="407" transform="translate(10.5 139.5)" fill="none" stroke="#4f5d2f" stroke-width="1"/>
    <g id="Gruppe_5" data-name="Gruppe 5" transform="translate(-27.125 35.779)">
      <path id="Pfad_1-3" data-name="Pfad 1" d="M38.016,138.8c-.914.647-1.061.92-.728,1.458l.257.419,1.342.025a18.037,18.037,0,0,1,3.807.361c2.132.43,3.145,1.035,7.1,4.187a50.588,50.588,0,0,0,5.951,4.378,26.085,26.085,0,0,0,5.776,2.6,10.872,10.872,0,0,0,3.322.693l1.338.067-.237.531c-.822,1.809-.94,2.871-.49,4.243.363,1.1.944,1.535,1.966,1.451.412-.043,1.479-.572,8.479-4.216l8-4.166.337-.465c.531-.75.53-1.131,0-2.12a4.146,4.146,0,0,0-2.981-2.212l-1.186-.357.166-.389c.1-.21.409-.858.687-1.437.51-1.042.608-1.133,1.173-1.084a1.366,1.366,0,0,1,.081.484,5.476,5.476,0,0,0,2,3.419.711.711,0,0,0,1.009-.591c.052-.356.03-.4-.491-.995a3.3,3.3,0,0,1-.012-4.6,12.956,12.956,0,0,1,3.871-3.081,14.768,14.768,0,0,0,5.31-4.817,12.372,12.372,0,0,0,2.218-7.116,5.926,5.926,0,0,0-.771-3.125,5.528,5.528,0,0,0-4.875-3.122,5.7,5.7,0,0,0-4,1.595,7.945,7.945,0,0,0-2.376,3.8,7.688,7.688,0,0,0-.379,3.975c.158,1.063.168,1.031-.513,1.214-.2.066-.276.025-.295-.136-.055-.485-.68-2.95-.954-3.781L81.621,125l-.4-.093c-.461-.1-.4-.145-2,1.463a24.893,24.893,0,0,1-7.974,5.717,28.736,28.736,0,0,1-6.7,2.8c-2.827.84-4.9,1.009-12.139,1.028-6.281.019-7.293.072-9,.46A17.3,17.3,0,0,0,38.016,138.8Zm3.735-.233c2.47-.97,3.408-1.063,10.53-1.059,8.767,0,10.877-.266,15.418-1.984a53.757,53.757,0,0,0,8.336-4.339,30.43,30.43,0,0,0,4.166-3.55c.318-.324.489-.452.506-.369s.135.588.264,1.139a22,22,0,0,1,.456,8.791,29.28,29.28,0,0,1-1.99,6.089c-1.517,3.053-1.4,3.479,1.118,4.222,1.275.376,1.517.487,1.947.934.573.57.623.768.326,1.107-.241.27-14.981,7.982-15.455,8.083-.244.061-.292.02-.451-.436a3.015,3.015,0,0,1,.106-2.148c.767-1.636.859-2.421.368-3.061a3.375,3.375,0,0,0-2.293-.662,9.815,9.815,0,0,1-3.548-.773c-3.718-1.3-5.938-2.634-10.43-6.284-4.678-3.8-6.231-4.614-9.538-5.025a3.071,3.071,0,0,1-1.037-.2C40.625,139.006,41.159,138.794,41.751,138.565Zm47.48-17.606a3.712,3.712,0,0,1,2.3.041,4.157,4.157,0,0,1,2.845,3.191,10.437,10.437,0,0,1-1.917,7.644,12.715,12.715,0,0,1-4.7,4.222c-2.72,1.626-4.161,2.9-4.962,4.4-.588,1.1-.727.9-.342-.506a24.9,24.9,0,0,0,.8-7.365c-.041-.584-.07-1.069-.07-1.1a4.557,4.557,0,0,1,.6-.192l.587-.161.588,1.129c.555,1.067.609,1.144.981,1.253a.642.642,0,0,0,.908-.354c.132-.253.1-.357-.43-1.382a8.947,8.947,0,0,1-1.01-6.239A7.8,7.8,0,0,1,88,121.548,2.994,2.994,0,0,1,89.23,120.959Z" fill="#65211f"/>
    </g>
    <text id="Salat_Dressing" data-name="Salat Dressing" transform="translate(79 187)" fill="#12152c" font-size="30" font-family="OpenSauceOne-Regular, Open Sauce One"><tspan x="0" y="0">Salat Dressing</tspan></text>
    <line id="Linie_3" data-name="Linie 3" x2="407" transform="translate(10.5 194.5)" fill="none" stroke="#4f5d2f" stroke-width="1"/>
    <g id="Gruppe_6" data-name="Gruppe 6" transform="translate(-27.125 90.779)">
      <path id="Pfad_1-4" data-name="Pfad 1" d="M38.016,138.8c-.914.647-1.061.92-.728,1.458l.257.419,1.342.025a18.037,18.037,0,0,1,3.807.361c2.132.43,3.145,1.035,7.1,4.187a50.588,50.588,0,0,0,5.951,4.378,26.085,26.085,0,0,0,5.776,2.6,10.872,10.872,0,0,0,3.322.693l1.338.067-.237.531c-.822,1.809-.94,2.871-.49,4.243.363,1.1.944,1.535,1.966,1.451.412-.043,1.479-.572,8.479-4.216l8-4.166.337-.465c.531-.75.53-1.131,0-2.12a4.146,4.146,0,0,0-2.981-2.212l-1.186-.357.166-.389c.1-.21.409-.858.687-1.437.51-1.042.608-1.133,1.173-1.084a1.366,1.366,0,0,1,.081.484,5.476,5.476,0,0,0,2,3.419.711.711,0,0,0,1.009-.591c.052-.356.03-.4-.491-.995a3.3,3.3,0,0,1-.012-4.6,12.956,12.956,0,0,1,3.871-3.081,14.768,14.768,0,0,0,5.31-4.817,12.372,12.372,0,0,0,2.218-7.116,5.926,5.926,0,0,0-.771-3.125,5.528,5.528,0,0,0-4.875-3.122,5.7,5.7,0,0,0-4,1.595,7.945,7.945,0,0,0-2.376,3.8,7.688,7.688,0,0,0-.379,3.975c.158,1.063.168,1.031-.513,1.214-.2.066-.276.025-.295-.136-.055-.485-.68-2.95-.954-3.781L81.621,125l-.4-.093c-.461-.1-.4-.145-2,1.463a24.893,24.893,0,0,1-7.974,5.717,28.736,28.736,0,0,1-6.7,2.8c-2.827.84-4.9,1.009-12.139,1.028-6.281.019-7.293.072-9,.46A17.3,17.3,0,0,0,38.016,138.8Zm3.735-.233c2.47-.97,3.408-1.063,10.53-1.059,8.767,0,10.877-.266,15.418-1.984a53.757,53.757,0,0,0,8.336-4.339,30.43,30.43,0,0,0,4.166-3.55c.318-.324.489-.452.506-.369s.135.588.264,1.139a22,22,0,0,1,.456,8.791,29.28,29.28,0,0,1-1.99,6.089c-1.517,3.053-1.4,3.479,1.118,4.222,1.275.376,1.517.487,1.947.934.573.57.623.768.326,1.107-.241.27-14.981,7.982-15.455,8.083-.244.061-.292.02-.451-.436a3.015,3.015,0,0,1,.106-2.148c.767-1.636.859-2.421.368-3.061a3.375,3.375,0,0,0-2.293-.662,9.815,9.815,0,0,1-3.548-.773c-3.718-1.3-5.938-2.634-10.43-6.284-4.678-3.8-6.231-4.614-9.538-5.025a3.071,3.071,0,0,1-1.037-.2C40.625,139.006,41.159,138.794,41.751,138.565Zm47.48-17.606a3.712,3.712,0,0,1,2.3.041,4.157,4.157,0,0,1,2.845,3.191,10.437,10.437,0,0,1-1.917,7.644,12.715,12.715,0,0,1-4.7,4.222c-2.72,1.626-4.161,2.9-4.962,4.4-.588,1.1-.727.9-.342-.506a24.9,24.9,0,0,0,.8-7.365c-.041-.584-.07-1.069-.07-1.1a4.557,4.557,0,0,1,.6-.192l.587-.161.588,1.129c.555,1.067.609,1.144.981,1.253a.642.642,0,0,0,.908-.354c.132-.253.1-.357-.43-1.382a8.947,8.947,0,0,1-1.01-6.239A7.8,7.8,0,0,1,88,121.548,2.994,2.994,0,0,1,89.23,120.959Z" fill="#65211f"/>
    </g>
    <text id="Steak_Soßen" data-name="Steak Soßen" transform="translate(79 242)" fill="#12152c" font-size="30" font-family="OpenSauceOne-Regular, Open Sauce One"><tspan x="0" y="0">Steak Soßen</tspan></text>
    <line id="Linie_4" data-name="Linie 4" x2="407" transform="translate(10.5 249.5)" fill="none" stroke="#4f5d2f" stroke-width="1"/>
    <g id="Gruppe_7" data-name="Gruppe 7" transform="translate(-27.125 145.779)">
      <path id="Pfad_1-5" data-name="Pfad 1" d="M38.016,138.8c-.914.647-1.061.92-.728,1.458l.257.419,1.342.025a18.037,18.037,0,0,1,3.807.361c2.132.43,3.145,1.035,7.1,4.187a50.588,50.588,0,0,0,5.951,4.378,26.085,26.085,0,0,0,5.776,2.6,10.872,10.872,0,0,0,3.322.693l1.338.067-.237.531c-.822,1.809-.94,2.871-.49,4.243.363,1.1.944,1.535,1.966,1.451.412-.043,1.479-.572,8.479-4.216l8-4.166.337-.465c.531-.75.53-1.131,0-2.12a4.146,4.146,0,0,0-2.981-2.212l-1.186-.357.166-.389c.1-.21.409-.858.687-1.437.51-1.042.608-1.133,1.173-1.084a1.366,1.366,0,0,1,.081.484,5.476,5.476,0,0,0,2,3.419.711.711,0,0,0,1.009-.591c.052-.356.03-.4-.491-.995a3.3,3.3,0,0,1-.012-4.6,12.956,12.956,0,0,1,3.871-3.081,14.768,14.768,0,0,0,5.31-4.817,12.372,12.372,0,0,0,2.218-7.116,5.926,5.926,0,0,0-.771-3.125,5.528,5.528,0,0,0-4.875-3.122,5.7,5.7,0,0,0-4,1.595,7.945,7.945,0,0,0-2.376,3.8,7.688,7.688,0,0,0-.379,3.975c.158,1.063.168,1.031-.513,1.214-.2.066-.276.025-.295-.136-.055-.485-.68-2.95-.954-3.781L81.621,125l-.4-.093c-.461-.1-.4-.145-2,1.463a24.893,24.893,0,0,1-7.974,5.717,28.736,28.736,0,0,1-6.7,2.8c-2.827.84-4.9,1.009-12.139,1.028-6.281.019-7.293.072-9,.46A17.3,17.3,0,0,0,38.016,138.8Zm3.735-.233c2.47-.97,3.408-1.063,10.53-1.059,8.767,0,10.877-.266,15.418-1.984a53.757,53.757,0,0,0,8.336-4.339,30.43,30.43,0,0,0,4.166-3.55c.318-.324.489-.452.506-.369s.135.588.264,1.139a22,22,0,0,1,.456,8.791,29.28,29.28,0,0,1-1.99,6.089c-1.517,3.053-1.4,3.479,1.118,4.222,1.275.376,1.517.487,1.947.934.573.57.623.768.326,1.107-.241.27-14.981,7.982-15.455,8.083-.244.061-.292.02-.451-.436a3.015,3.015,0,0,1,.106-2.148c.767-1.636.859-2.421.368-3.061a3.375,3.375,0,0,0-2.293-.662,9.815,9.815,0,0,1-3.548-.773c-3.718-1.3-5.938-2.634-10.43-6.284-4.678-3.8-6.231-4.614-9.538-5.025a3.071,3.071,0,0,1-1.037-.2C40.625,139.006,41.159,138.794,41.751,138.565Zm47.48-17.606a3.712,3.712,0,0,1,2.3.041,4.157,4.157,0,0,1,2.845,3.191,10.437,10.437,0,0,1-1.917,7.644,12.715,12.715,0,0,1-4.7,4.222c-2.72,1.626-4.161,2.9-4.962,4.4-.588,1.1-.727.9-.342-.506a24.9,24.9,0,0,0,.8-7.365c-.041-.584-.07-1.069-.07-1.1a4.557,4.557,0,0,1,.6-.192l.587-.161.588,1.129c.555,1.067.609,1.144.981,1.253a.642.642,0,0,0,.908-.354c.132-.253.1-.357-.43-1.382a8.947,8.947,0,0,1-1.01-6.239A7.8,7.8,0,0,1,88,121.548,2.994,2.994,0,0,1,89.23,120.959Z" fill="#65211f"/>
    </g>
    <text id="BBQ_Soßen" data-name="BBQ Soßen" transform="translate(79 297)" fill="#12152c" font-size="30" font-family="OpenSauceOne-Regular, Open Sauce One"><tspan x="0" y="0">BBQ Soßen</tspan></text>
    <line id="Linie_5" data-name="Linie 5" x2="407" transform="translate(10.5 304.5)" fill="none" stroke="#4f5d2f" stroke-width="1"/>
  </g>
</svg>
