<?xml version="1.0" standalone="no"?>
<!DOCTYPE svg PUBLIC "-//W3C//DTD SVG 20010904//EN"
 "http://www.w3.org/TR/2001/REC-SVG-20010904/DTD/svg10.dtd">
<svg version="1.0" xmlns="http://www.w3.org/2000/svg"
 width="512.000000pt" height="512.000000pt" viewBox="0 0 512.000000 512.000000"
 preserveAspectRatio="xMidYMid meet">
<metadata>
Created by potrace 1.16, written by Peter Selinger 2001-2019
</metadata>
<g transform="translate(0.000000,512.000000) scale(0.100000,-0.100000)"
fill="#000000" stroke="none">
<path d="M115 3919 c-95 -13 -117 -28 -113 -82 l3 -42 101 -55 c138 -76 187
-107 275 -178 145 -117 198 -203 374 -599 151 -340 195 -430 279 -568 98 -160
200 -289 336 -426 102 -103 143 -136 225 -184 l99 -58 -39 -31 c-134 -105
-185 -181 -205 -303 -16 -98 11 -154 92 -188 33 -13 135 -15 811 -15 l773 0
44 22 c70 36 85 65 84 161 0 114 -35 186 -139 286 l-76 74 28 23 c16 12 65 49
109 82 80 59 91 62 132 36 2 -1 -4 -19 -13 -40 -38 -88 -28 -282 17 -339 26
-34 73 -31 100 5 18 25 18 29 2 95 -37 160 24 278 181 350 100 46 192 64 416
81 269 19 422 59 594 156 210 119 363 272 450 453 53 111 65 160 65 268 0 188
-93 349 -247 430 -117 60 -231 72 -367 37 -127 -32 -227 -91 -331 -195 -102
-102 -144 -167 -186 -287 -30 -87 -28 -85 -87 -72 -18 3 -22 9 -17 22 15 39
65 251 77 325 l12 80 -27 23 c-31 26 -25 27 -210 -32 -314 -101 -439 -119
-832 -119 -316 0 -391 7 -620 52 -248 48 -412 117 -963 402 -478 247 -557 283
-702 321 -139 37 -348 49 -505 29z m293 -130 c226 -24 301 -54 842 -336 666
-347 837 -410 1250 -459 198 -24 611 -23 805 0 135 17 339 63 457 105 37 12
55 15 53 8 -2 -7 -13 -50 -25 -97 -65 -265 -167 -488 -313 -686 -74 -101 -277
-299 -392 -384 -236 -172 -244 -209 -82 -365 82 -79 96 -97 111 -148 21 -66
17 -83 -19 -97 -29 -11 -1454 -14 -1494 -3 -21 5 -23 10 -17 51 8 58 46 124
93 159 123 94 161 150 149 218 -8 41 -73 103 -148 141 -74 37 -131 85 -239
199 -231 246 -347 435 -544 890 -205 474 -291 597 -526 759 -46 31 -77 56 -71
56 7 0 56 -5 110 -11z m4304 -540 c72 -16 122 -42 173 -94 93 -92 126 -222 90
-355 -50 -189 -227 -388 -448 -505 -171 -91 -292 -122 -524 -135 -271 -16
-431 -56 -551 -138 -88 -60 -91 -40 -6 52 142 156 276 357 352 528 20 46 37
84 38 86 0 1 24 -3 53 -9 l51 -11 0 -109 c0 -103 1 -111 25 -134 28 -29 51
-31 83 -9 20 14 22 23 22 122 0 210 61 392 170 514 89 99 242 186 355 201 55
7 64 7 117 -4z"/>
<path d="M1066 3229 c-57 -16 -59 -47 -12 -185 56 -164 138 -345 202 -446 23
-37 28 -39 67 -36 35 3 44 8 56 33 14 28 12 34 -42 135 -59 111 -129 278 -167
395 -32 99 -52 119 -104 104z"/>
</g>
</svg>
