<?xml version="1.0" encoding="UTF-8"?><svg id="a" xmlns="http://www.w3.org/2000/svg" viewBox="0 0 505.15134 342.64013"><defs><style>.b{fill:#65211f;}.c{fill:#1d1b3a;}</style></defs><g transform="translate(0.000000,512.000000) scale(0.100000,-0.100000)"><path class="b" d="M7.62957,167.69389c-7.82667,5.53925-9.08561,7.88554-6.23764,12.49087l2.20523,3.58705,11.49841,.2156c15.75002,.37011,21.52776,.85762,32.61174,3.09269,18.26389,3.68378,26.93577,8.86533,60.83077,35.86624,29.09191,23.18773,37.15013,29.13962,50.97265,37.50252,16.0801,9.66801,31.08376,16.40153,49.4727,22.27491,13.80325,4.42721,18.9637,5.46149,28.45356,5.93338l11.45951,.57405-2.0282,4.55043c-7.03853,15.50062-8.05354,24.59676-4.19495,36.34202,3.10535,9.43169,8.08584,13.15253,16.84062,12.42874,3.52743-.37044,12.66757-4.90232,72.6314-36.11289l68.56811-35.68901,2.88724-3.98294c4.54717-6.4252,4.53881-9.69016,.01784-18.15956-5.26332-10.11224-11.69216-14.88299-25.53431-18.95175l-10.15804-3.05521,1.42181-3.33293c.86523-1.80316,3.50345-7.34751,5.88283-12.30619,4.37231-8.92709,5.20955-9.70106,10.04681-9.28771,.22358-.00364,.5224,1.87005,.69363,4.14836,.69217,9.56038,10.53608,26.30724,17.15942,29.28574,3.87606,1.81553,7.90664-.62055,8.63954-5.06047,.44243-3.04865,.25776-3.40346-4.20869-8.51921-10.66916-12.48435-10.70622-25.76775-.10391-39.40304,6.74659-8.69733,14.0763-14.54159,33.16109-26.39152,22.98413-14.10496,34.70904-24.71705,45.48767-41.26248,13.13365-20.25135,19.64141-40.88698,19.00198-60.95913-.42351-12.29311-1.62136-17.19364-6.60767-26.77366C489.82086,10.06248,474.13811,.07492,456.73799,0c-13.14852,.0796-23.8148,4.27847-34.2626,13.66215-9.78797,8.70205-15.93436,18.55252-20.35794,32.57935-4.33851,13.75708-5.06306,21.46195-3.24828,34.04554,1.35563,9.10232,1.4407,8.83258-4.39304,10.40342-1.73518,.56494-2.36701,.21739-2.52369-1.1666-.47005-4.15199-5.82279-25.26569-8.17488-32.38381l-2.62911-7.65034-3.4569-.79361c-3.95023-.87505-3.46417-1.24077-17.15039,12.53411-23.1899,23.45631-33.44684,30.82416-68.30747,48.96877-28.03043,14.58955-35.00641,17.43134-57.39722,24.01247-24.2147,7.19224-41.94783,8.64347-103.98197,8.80224-53.80432,.15915-62.47403,.6132-77.09053,3.93702-14.03811,3.13551-33.13126,11.72049-46.13438,20.74317Zm31.99227-1.99615c21.15515-8.30541,29.19302-9.107,90.20162-9.07019,75.0976,.03138,93.17464-2.27526,132.07165-16.99676,18.67144-7.01266,55.25997-26.16936,71.40663-37.16643,11.19014-7.74085,27.16194-21.2398,35.68988-30.41336,2.72801-2.77272,4.18617-3.86988,4.33195-3.15661s1.15532,5.0354,2.26084,9.75851c6.46916,26.50755,7.71716,50.9978,3.90794,75.30191-1.90097,12.37563-10.7663,39.31141-17.04285,52.16073-12.99297,26.15307-11.99433,29.80446,9.57814,36.16282,10.92111,3.22171,12.99401,4.17201,16.67921,8.00336,4.90997,4.8849,5.34003,6.57754,2.79307,9.4815-2.06455,2.31466-128.32908,68.37227-132.3851,69.24331-2.09363,.52604-2.50188,.17486-3.86261-3.73902-1.9682-5.51418-1.64464-13.12308,.90851-18.39768,6.57065-14.01701,7.3559-20.73887,3.15193-26.2167-2.60258-3.2675-11.23084-5.76613-19.63807-5.67417-8.27236,.1345-15.54461-1.49163-30.38796-6.61757-31.84829-11.15601-50.86397-22.56538-89.34575-53.83027-40.06863-32.5809-53.37601-39.5209-81.70088-43.04111-5.51163-.62602-9.41569-1.41237-8.88347-1.68938,.62093-.32319,5.19827-2.14197,10.26529-4.1029ZM446.3349,14.88441c7.12539-1.90494,12.76099-1.90711,19.6857,.35085,12.49705,3.867,21.42631,13.87491,24.37351,27.33463,4.29084,19.07351-2.22203,44.89758-16.42376,65.47939-10.96694,15.96703-20.26886,24.30336-40.24796,36.16783-23.30004,13.93119-35.64589,24.86646-42.50445,37.68052-5.03577,9.38515-6.22527,7.74958-2.93304-4.33559,5.39351-20.39387,7.99977-44.41006,6.84628-63.08731-.34972-5.00377-.59619-9.1594-.59983-9.38297-.04617-.0887,2.2674-.84196,5.11683-1.64865l5.03176-1.3789,5.03247,9.66872c4.75546,9.1365,5.21352,9.79996,8.40431,10.73208,3.82262,1.27967,5.95515,.39518,7.77795-3.03373,1.12771-2.16524,.88959-3.05592-3.68119-11.8376-9.69559-18.62782-12.6875-37.58826-8.65145-53.44261,3.32387-12.89077,12.87882-27.67194,22.20982-34.21965,4.55553-3.16025,5.35386-3.57577,10.56303-5.04701Z"/></g><g><path class="c" d="M134.40713,184.14485c0,12.99219-7.896,19.88037-17.52783,19.88037-9.96777,0-16.96777-7.72803-16.96777-19.15234,0-11.98389,7.44775-19.82373,17.52783-19.82373,10.30371,0,16.96777,7.896,16.96777,19.0957Zm-29.2876,.61621c0,8.06396,4.36768,15.28809,12.03955,15.28809,7.72803,0,12.09619-7.1123,12.09619-15.68018,0-7.50391-3.91992-15.34375-12.04004-15.34375-8.06396,0-12.0957,7.44775-12.0957,15.73584Z"/><path class="c" d="M140.56728,185.15315c0-3.47217-.11182-6.27197-.22412-8.84814h4.42432l.22363,4.64795h.1123c2.01611-3.30371,5.20801-5.26367,9.63184-5.26367,6.55225,0,11.47998,5.54395,11.47998,13.77588,0,9.74365-5.93604,14.56006-12.31982,14.56006-3.58398,0-6.72021-1.56836-8.34424-4.25635h-.11182v14.72803h-4.87207v-29.34375Zm4.87207,7.22412c0,.72754,.11182,1.3999,.22412,2.01562,.896,3.41602,3.86377,5.76807,7.39209,5.76807,5.20752,0,8.23193-4.25586,8.23193-10.47168,0-5.43213-2.85596-10.08008-8.06396-10.08008-3.36035,0-6.49609,2.40771-7.44824,6.104-.16797,.61572-.33594,1.34375-.33594,2.01562v4.64844Z"/><path class="c" d="M175.17422,190.75325c.11182,6.66357,4.36768,9.40771,9.2959,9.40771,3.52783,0,5.65576-.61572,7.50391-1.3999l.83984,3.52783c-1.73584,.78418-4.70361,1.68018-9.01562,1.68018-8.34424,0-13.32812-5.48828-13.32812-13.66406s4.81592-14.61572,12.71191-14.61572c8.84814,0,11.19971,7.78369,11.19971,12.76758,0,1.0083-.11133,1.79199-.16797,2.29639h-19.03955Zm14.44775-3.52832c.05615-3.13574-1.28809-8.00781-6.83203-8.00781-4.98389,0-7.16797,4.5918-7.55957,8.00781h14.3916Z"/><path class="c" d="M200.48623,183.64095c0-2.7998-.05566-5.0957-.22363-7.33594h4.36816l.2793,4.47998h.1123c1.34375-2.57568,4.47949-5.0957,8.95996-5.0957,3.75195,0,9.57617,2.23975,9.57617,11.53564v16.18408h-4.92871v-15.62402c0-4.36768-1.62402-8.00781-6.27148-8.00781-3.24805,0-5.76758,2.2959-6.6084,5.04004-.22363,.61572-.33594,1.45605-.33594,2.2959v16.2959h-4.92773v-19.76807Z"/><path class="c" d="M231.06142,197.47298c2.18359,1.34424,5.37598,2.46387,8.73633,2.46387,4.9834,0,7.89551-2.63184,7.89551-6.43994,0-3.52783-2.01562-5.54395-7.1123-7.50391-6.15918-2.18408-9.96777-5.37598-9.96777-10.6958,0-5.87988,4.87207-10.24805,12.20801-10.24805,3.86426,0,6.66406,.896,8.34375,1.84814l-1.34375,3.97607c-1.23145-.67236-3.75195-1.79199-7.16797-1.79199-5.15137,0-7.1123,3.07959-7.1123,5.65576,0,3.52783,2.29688,5.26416,7.50488,7.27979,6.38379,2.46436,9.63184,5.54395,9.63184,11.08789,0,5.82422-4.3125,10.86426-13.21582,10.86426-3.64062,0-7.61621-1.06396-9.63281-2.4082l1.23242-4.08789Z"/><path class="c" d="M274.34853,203.40901l-.3916-3.41602h-.16797c-1.51172,2.12793-4.42383,4.03223-8.28809,4.03223-5.48828,0-8.28809-3.86426-8.28809-7.78418,0-6.55176,5.82422-10.13574,16.2959-10.08008v-.56006c0-2.23975-.61621-6.27197-6.16016-6.27197-2.51953,0-5.15137,.78418-7.05566,2.01611l-1.12012-3.24805c2.24023-1.45605,5.48828-2.40771,8.9043-2.40771,8.28809,0,10.30371,5.65576,10.30371,11.08789v10.13574c0,2.35205,.1123,4.64795,.44824,6.49609h-4.48047Zm-.72754-13.83203c-5.37598-.11182-11.48047,.84033-11.48047,6.104,0,3.19189,2.12793,4.7041,4.64844,4.7041,3.52734,0,5.76758-2.24023,6.55176-4.53613,.16797-.50391,.28027-1.06396,.28027-1.56787v-4.7041Z"/><path class="c" d="M309.01162,196.01692c0,2.80029,.05664,5.26416,.22461,7.39209h-4.36816l-.28027-4.42383h-.1123c-1.28711,2.18408-4.14355,5.04004-8.95996,5.04004-4.25586,0-9.35156-2.35205-9.35156-11.87207v-15.84814h4.92773v15.00781c0,5.15234,1.56836,8.62402,6.04785,8.62402,3.30469,0,5.60059-2.2959,6.49609-4.47998,.28027-.72803,.44824-1.62402,.44824-2.52002v-16.63184h4.92773v19.71191Z"/><path class="c" d="M336.50869,202.4012c-1.28809,.67188-4.14453,1.56787-7.78418,1.56787-8.17578,0-13.49609-5.54395-13.49609-13.83203,0-8.34375,5.71191-14.39209,14.55957-14.39209,2.91211,0,5.48828,.72803,6.83203,1.40039l-1.12012,3.80762c-1.17578-.67188-3.02344-1.2876-5.71191-1.2876-6.21582,0-9.5752,4.5918-9.5752,10.24756,0,6.27197,4.03125,10.13623,9.40723,10.13623,2.80078,0,4.64844-.72803,6.04883-1.34424l.83984,3.69629Z"/><path class="c" d="M344.68447,190.75325c.1123,6.66357,4.36816,9.40771,9.2959,9.40771,3.52832,0,5.65625-.61572,7.50391-1.3999l.83984,3.52783c-1.73535,.78418-4.7041,1.68018-9.01562,1.68018-8.34375,0-13.32812-5.48828-13.32812-13.66406s4.81641-14.61572,12.71191-14.61572c8.84766,0,11.2002,7.78369,11.2002,12.76758,0,1.0083-.1123,1.79199-.16797,2.29639h-19.04004Zm14.44824-3.52832c.05566-3.13574-1.28809-8.00781-6.83203-8.00781-4.98438,0-7.16797,4.5918-7.56055,8.00781h14.39258Z"/></g></svg>